<svg xmlns="http://www.w3.org/2000/svg" version="1.1" xmlns:xlink="http://www.w3.org/1999/xlink" xmlns:svgjs="http://svgjs.com/svgjs" width="1440" height="560" preserveAspectRatio="none" viewBox="0 0 1440 560">
    <g mask="url(&quot;#SvgjsMask1021&quot;)" fill="none">
        <rect width="1440" height="560" x="0" y="0" fill="rgba(72, 49, 212, 1)"></rect>
        <path d="M1186.66 45.51L1204.87 45.51L1204.87 93.09L1186.66 93.09z" fill="rgba(204, 243, 129, 0.34)"></path>
        <path d="M218.45 337.16L239.24 337.16L239.24 357.95L218.45 357.95z" stroke="rgba(204, 243, 129, 0.49)"></path>
        <path d="M1309.72 514.9L1328.91 514.9L1328.91 534.09L1309.72 534.09z" fill="rgba(204, 243, 129, 0.5)"></path>
        <path d="M705.71 558.28L736.69 558.28L736.69 600.23L705.71 600.23z" fill="rgba(204, 243, 129, 0.5)"></path>
        <path d="M149.58 408.85a45.99 45.99 0 1 0 62.88 67.13z" stroke="rgba(204, 243, 129, 0.49)"></path>
        <path d="M698.78 1.2L740.27 1.2L740.27 9.7L698.78 9.7z" stroke="rgba(204, 243, 129, 0.5)"></path>
        <path d="M693.63 506.49L725.19 506.49L725.19 538.05L693.63 538.05z" stroke="rgba(204, 243, 129, 0.5)"></path>
        <path d="M130.68-6.25a37.08 37.08 0 1 0 18.96 71.69z" stroke="rgba(204, 243, 129, 0.5)"></path>
        <path d="M775.94 476.73 a0.98 0.98 0 1 0 1.96 0 a0.98 0.98 0 1 0 -1.96 0z" stroke="rgba(204, 243, 129, 0.5)"></path>
        <path d="M186.48 276.34 a45.15 45.15 0 1 0 90.3 0 a45.15 45.15 0 1 0 -90.3 0z" stroke="rgba(204, 243, 129, 0.49)"></path>
        <path d="M686.32 475.27a9.54 9.54 0 1 0 7.69-17.46z" fill="rgba(204, 243, 129, 0.34)"></path>
        <path d="M1099.49 583.32a29.45 29.45 0 1 0-5.31-58.66z" fill="rgba(204, 243, 129, 0.49)"></path>
        <path d="M223.94 172.33L245.74 172.33L245.74 194.13L223.94 194.13z" stroke="rgba(204, 243, 129, 0.5)"></path>
        <path d="M477.48 58.38a48.98 48.98 0 1 0-33.58 92.02z" stroke="rgba(204, 243, 129, 0.5)"></path>
        <path d="M1075.13 465.4 a21.45 21.45 0 1 0 42.9 0 a21.45 21.45 0 1 0 -42.9 0z" fill="rgba(204, 243, 129, 0.49)"></path>
        <path d="M758.54 198.08L776.7 198.08L776.7 216.24L758.54 216.24z" fill="rgba(204, 243, 129, 0.5)"></path>
        <path d="M255.87 411.55 a41.98 41.98 0 1 0 83.96 0 a41.98 41.98 0 1 0 -83.96 0z" stroke="rgba(204, 243, 129, 0.5)"></path>
        <path d="M874.35 319.48L909.69 319.48L909.69 354.82L874.35 354.82z" stroke="rgba(204, 243, 129, 0.34)"></path>
        <path d="M144.18 337.01L194 337.01L194 386.83L144.18 386.83z" stroke="rgba(204, 243, 129, 0.49)"></path>
        <path d="M1400.14 185.53 a24.96 24.96 0 1 0 49.92 0 a24.96 24.96 0 1 0 -49.92 0z" stroke="rgba(204, 243, 129, 0.34)"></path>
        <path d="M839.77 447.1a11.17 11.17 0 1 0 4.34-21.92z" stroke="rgba(204, 243, 129, 0.49)"></path>
        <path d="M396.59 131.96L440.97 131.96L440.97 169.38L396.59 169.38z" stroke="rgba(204, 243, 129, 0.5)"></path>
        <path d="M1163.58 440.42a42.55 42.55 0 1 0 85.1 0.98z" stroke="rgba(204, 243, 129, 0.34)"></path>
        <path d="M1072.57 61.57L1089.53 61.57L1089.53 82.41L1072.57 82.41z" fill="rgba(204, 243, 129, 0.5)"></path>
        <path d="M755.61 123.21L775.33 123.21L775.33 137.86L755.61 137.86z" stroke="rgba(204, 243, 129, 0.5)"></path>
        <path d="M994.32 375.53 a35.88 35.88 0 1 0 71.76 0 a35.88 35.88 0 1 0 -71.76 0z" stroke="rgba(204, 243, 129, 0.34)"></path>
        <path d="M10.53 188.72 a25.77 25.77 0 1 0 51.54 0 a25.77 25.77 0 1 0 -51.54 0z" fill="rgba(204, 243, 129, 0.5)"></path>
        <path d="M1276.41 554.14L1315.96 554.14L1315.96 569.64L1276.41 569.64z" fill="rgba(204, 243, 129, 0.5)"></path>
        <path d="M733.5 405.53a25.54 25.54 0 1 0-19.96 47.01z" fill="rgba(204, 243, 129, 0.49)"></path>
        <path d="M384.05 140.35L385.86 140.35L385.86 142.16L384.05 142.16z" fill="rgba(204, 243, 129, 0.34)"></path>
        <path d="M973.38 533.31L984.15 533.31L984.15 564.4L973.38 564.4z" fill="rgba(204, 243, 129, 0.49)"></path>
        <path d="M800.59 170.02L852.66 170.02L852.66 179.39L800.59 179.39z" stroke="rgba(204, 243, 129, 0.49)"></path>
        <path d="M199.04 46.73L212.8 46.73L212.8 94.46L199.04 94.46z" stroke="rgba(204, 243, 129, 0.34)"></path>
    </g>
    <defs>
        <mask id="SvgjsMask1021">
            <rect width="1440" height="560" fill="#ffffff"></rect>
        </mask>
    </defs>
</svg>