<svg xmlns="http://www.w3.org/2000/svg" version="1.1" xmlns:xlink="http://www.w3.org/1999/xlink" xmlns:svgjs="http://svgjs.com/svgjs" width="1440" height="560" preserveAspectRatio="none" viewBox="0 0 1440 560">
    <g mask="url(&quot;#SvgjsMask1046&quot;)" fill="none">
        <rect width="1440" height="560" x="0" y="0" fill="rgba(72, 49, 212, 1)"></rect>
        <circle r="46.666666666666664" cx="1065.08" cy="253.21" fill="rgba(204, 243, 129, 1)"></circle>
        <path d="M1098.76 467.68L1086.58 471.62 1080.05 460.6 1067.87 464.55 1061.34 453.53 1049.16 457.48 1042.64 446.46M1101.59 460.19L1089.4 464.14 1082.88 453.12 1070.7 457.07 1064.17 446.05 1051.99 449.99 1045.46 438.98M1104.42 452.71L1092.23 456.66 1085.71 445.64 1073.53 449.58 1067 438.57 1054.82 442.51 1048.29 431.49" stroke="rgba(204, 243, 129, 1)" stroke-width="2.19"></path>
        <circle r="56.050249815015015" cx="1188.82" cy="261.35" fill="rgba(204, 243, 129, 1)"></circle>
        <circle r="46.666666666666664" cx="1431.94" cy="437.92" fill="rgba(204, 243, 129, 1)"></circle>
        <path d="M87.41 46.46a5.6 5.6 0 1 0-2.5 10.92 5.6 5.6 0 1 0 2.5-10.92zM83.84 62.06a5.6 5.6 0 1 0-2.5 10.91 5.6 5.6 0 1 0 2.5-10.91zM80.27 77.65a5.6 5.6 0 1 0-2.5 10.92 5.6 5.6 0 1 0 2.5-10.92zM76.7 93.25a5.6 5.6 0 1 0-2.5 10.91 5.6 5.6 0 1 0 2.5-10.91zM78.96 11.69a5.6 5.6 0 1 0-2.5 10.92 5.6 5.6 0 1 0 2.5-10.92zM75.39 27.29a5.6 5.6 0 1 0-2.5 10.92 5.6 5.6 0 1 0 2.5-10.92zM71.82 42.89a5.6 5.6 0 1 0-2.5 10.91 5.6 5.6 0 1 0 2.5-10.91zM68.24 58.48a5.6 5.6 0 1 0-2.5 10.92 5.6 5.6 0 1 0 2.5-10.92z" fill="rgba(204, 243, 129, 1)"></path>
        <path d="M904.45 497.19a5.6 5.6 0 1 0 10.36 4.25 5.6 5.6 0 1 0-10.36-4.25zM919.25 503.27a5.6 5.6 0 1 0 10.36 4.25 5.6 5.6 0 1 0-10.36-4.25zM934.05 509.35a5.6 5.6 0 1 0 10.36 4.25 5.6 5.6 0 1 0-10.36-4.25zM948.85 515.42a5.6 5.6 0 1 0 10.36 4.26 5.6 5.6 0 1 0-10.36-4.26zM868.77 499.83a5.6 5.6 0 1 0 10.36 4.25 5.6 5.6 0 1 0-10.36-4.25zM883.57 505.91a5.6 5.6 0 1 0 10.36 4.25 5.6 5.6 0 1 0-10.36-4.25zM898.37 511.99a5.6 5.6 0 1 0 10.36 4.25 5.6 5.6 0 1 0-10.36-4.25zM913.17 518.07a5.6 5.6 0 1 0 10.36 4.25 5.6 5.6 0 1 0-10.36-4.25zM833.09 502.47a5.6 5.6 0 1 0 10.36 4.26 5.6 5.6 0 1 0-10.36-4.26zM847.89 508.55a5.6 5.6 0 1 0 10.36 4.26 5.6 5.6 0 1 0-10.36-4.26zM862.69 514.63a5.6 5.6 0 1 0 10.36 4.25 5.6 5.6 0 1 0-10.36-4.25zM877.49 520.71a5.6 5.6 0 1 0 10.36 4.25 5.6 5.6 0 1 0-10.36-4.25z" fill="rgba(204, 243, 129, 1)"></path>
        <path d="M898.54 541.65 L1022.22 575.73L902.1636019029507 616.9063980970493z" stroke="rgba(204, 243, 129, 1)" stroke-width="1"></path>
        <rect width="124.8" height="124.8" clip-path="url(&quot;#SvgjsClipPath1047&quot;)" x="848.83" y="389.44" fill="url(#SvgjsPattern1048)" transform="rotate(175.12, 911.23, 451.84)"></rect>
        <rect width="124.60000000000001" height="124.60000000000001" clip-path="url(&quot;#SvgjsClipPath1049&quot;)" x="210.71" y="66.08" fill="url(#SvgjsPattern1050)" transform="rotate(310.39, 273.01, 128.38)"></rect>
        <path d="M364.55 418.54a5.6 5.6 0 1 0-5.61-9.69 5.6 5.6 0 1 0 5.61 9.69zM356.54 404.69a5.6 5.6 0 1 0-5.6-9.7 5.6 5.6 0 1 0 5.6 9.7zM348.53 390.84a5.6 5.6 0 1 0-5.6-9.7 5.6 5.6 0 1 0 5.6 9.7zM340.53 376.99a5.6 5.6 0 1 0-5.61-9.7 5.6 5.6 0 1 0 5.61 9.7z" stroke="rgba(204, 243, 129, 1)" stroke-width="1" stroke-dasharray="2, 2"></path>
        <circle r="51.71091110539977" cx="944.1" cy="451.18" stroke="rgba(204, 243, 129, 1)" stroke-width="1"></circle>
        <rect width="208.96" height="208.96" clip-path="url(&quot;#SvgjsClipPath1051&quot;)" x="1021.34" y="205.05" fill="url(#SvgjsPattern1052)" transform="rotate(341.94, 1125.82, 309.53)"></rect>
    </g>
    <defs>
        <mask id="SvgjsMask1046">
            <rect width="1440" height="560" fill="#ffffff"></rect>
        </mask>
        <pattern x="0" y="0" width="12.48" height="12.48" patternUnits="userSpaceOnUse" id="SvgjsPattern1048">
            <path d="M6.24 1L6.24 11.48M1 6.24L11.48 6.24" stroke="rgba(204, 243, 129, 1)" fill="none" stroke-width="1.47"></path>
        </pattern>
        <clipPath id="SvgjsClipPath1047">
            <circle r="31.2" cx="911.23" cy="451.84"></circle>
        </clipPath>
        <pattern x="0" y="0" width="12.46" height="12.46" patternUnits="userSpaceOnUse" id="SvgjsPattern1050">
            <path d="M0 12.46L6.23 0L12.46 12.46" stroke="rgba(204, 243, 129, 1)" fill="none"></path>
        </pattern>
        <clipPath id="SvgjsClipPath1049">
            <circle r="31.150000000000002" cx="273.01" cy="128.38"></circle>
        </clipPath>
        <pattern x="0" y="0" width="13.06" height="13.06" patternUnits="userSpaceOnUse" id="SvgjsPattern1052">
            <path d="M0 13.06L6.53 0L13.06 13.06" stroke="rgba(204, 243, 129, 1)" fill="none"></path>
        </pattern>
        <clipPath id="SvgjsClipPath1051">
            <circle r="52.24" cx="1125.82" cy="309.53"></circle>
        </clipPath>
    </defs>
</svg>