<svg xmlns="http://www.w3.org/2000/svg" version="1.1" xmlns:xlink="http://www.w3.org/1999/xlink" xmlns:svgjs="http://svgjs.com/svgjs" width="1440" height="560" preserveAspectRatio="none" viewBox="0 0 1440 560">
    <g mask="url(&quot;#SvgjsMask1012&quot;)" fill="none">
        <rect width="1440" height="560" x="0" y="0" fill="rgba(255, 255, 255, 1)"></rect>
        <path d="M984.41 418.24L1017.35 418.24L1017.35 458.51L984.41 458.51z" stroke="rgba(72, 49, 212, 0.12)"></path>
        <path d="M850.4 268.23a33.09 33.09 0 1 0-53.81 38.52z" stroke="rgba(72, 49, 212, 0.13)"></path>
        <path d="M1019.74 170.84L1047.1 170.84L1047.1 198.77L1019.74 198.77z" stroke="rgba(72, 49, 212, 0.12)"></path>
        <path d="M1368.83 67.67a9.47 9.47 0 1 0-13.16 13.62z" stroke="rgba(72, 49, 212, 0.13)"></path>
        <path d="M1122.47 205.39L1137.87 205.39L1137.87 211.39L1122.47 211.39z" fill="rgba(204, 243, 129, 0.2)"></path>
        <path d="M1264.86 558.84 a1.28 1.28 0 1 0 2.56 0 a1.28 1.28 0 1 0 -2.56 0z" stroke="rgba(204, 243, 129, 0.2)"></path>
        <path d="M1355.06 355.9 a49.46 49.46 0 1 0 98.92 0 a49.46 49.46 0 1 0 -98.92 0z" stroke="rgba(204, 243, 129, 0.2)"></path>
        <path d="M789.32 105.25a15 15 0 1 0-24.48-17.34z" stroke="rgba(72, 49, 212, 0.12)"></path>
        <path d="M1418.77 457.6L1469.01 457.6L1469.01 482.69L1418.77 482.69z" stroke="rgba(72, 49, 212, 0.13)"></path>
        <path d="M1172.1 334.67 a43.71 43.71 0 1 0 87.42 0 a43.71 43.71 0 1 0 -87.42 0z" fill="rgba(72, 49, 212, 0.13)"></path>
        <path d="M1404.04 215.14L1407.4 215.14L1407.4 218.5L1404.04 218.5z" fill="rgba(204, 243, 129, 0.2)"></path>
        <path d="M87.2 285.03a36.81 36.81 0 1 0 73.36-6.1z" stroke="rgba(72, 49, 212, 0.12)"></path>
        <path d="M751.54 440.05 a48.47 48.47 0 1 0 96.94 0 a48.47 48.47 0 1 0 -96.94 0z" stroke="rgba(72, 49, 212, 0.12)"></path>
        <path d="M1296.86 441.5a37.47 37.47 0 1 0 18.48 72.63z" stroke="rgba(204, 243, 129, 0.2)"></path>
        <path d="M415.43 144.03L458.48 144.03L458.48 187.08L415.43 187.08z" fill="rgba(72, 49, 212, 0.13)"></path>
        <path d="M1347.47 484.73L1373.53 484.73L1373.53 510.79L1347.47 510.79z" fill="rgba(72, 49, 212, 0.12)"></path>
        <path d="M298.49 543.29 a51.57 51.57 0 1 0 103.14 0 a51.57 51.57 0 1 0 -103.14 0z" fill="rgba(72, 49, 212, 0.12)"></path>
        <path d="M1039.36 144.29L1089.97 144.29L1089.97 194.9L1039.36 194.9z" fill="rgba(204, 243, 129, 0.2)"></path>
        <path d="M1105.86 429.55 a40.27 40.27 0 1 0 80.54 0 a40.27 40.27 0 1 0 -80.54 0z" fill="rgba(72, 49, 212, 0.13)"></path>
        <path d="M709.34 485L718.86 485L718.86 494.52L709.34 494.52z" stroke="rgba(204, 243, 129, 0.2)"></path>
        <path d="M389.43 219.74 a37.05 37.05 0 1 0 74.1 0 a37.05 37.05 0 1 0 -74.1 0z" stroke="rgba(204, 243, 129, 0.2)"></path>
        <path d="M232.95 250.24 a52.65 52.65 0 1 0 105.3 0 a52.65 52.65 0 1 0 -105.3 0z" stroke="rgba(72, 49, 212, 0.12)"></path>
        <path d="M717.23 122.19L749.51 122.19L749.51 154.47L717.23 154.47z" fill="rgba(204, 243, 129, 0.2)"></path>
        <path d="M237.35 126.35 a46.67 46.67 0 1 0 93.34 0 a46.67 46.67 0 1 0 -93.34 0z" fill="rgba(72, 49, 212, 0.12)"></path>
        <path d="M1067.53 12.34L1097.66 12.34L1097.66 41.19L1067.53 41.19z" stroke="rgba(72, 49, 212, 0.13)"></path>
        <path d="M529.09 498.53a32.39 32.39 0 1 0-50.88 40.1z" stroke="rgba(72, 49, 212, 0.13)"></path>
        <path d="M1369.12 396.44L1378.78 396.44L1378.78 443.84L1369.12 443.84z" fill="rgba(72, 49, 212, 0.12)"></path>
        <path d="M362.8 315.02L365.95 315.02L365.95 318.17L362.8 318.17z" stroke="rgba(72, 49, 212, 0.13)"></path>
        <path d="M1353.05 481.18a31.59 31.59 0 1 0 40.86 48.2z" fill="rgba(72, 49, 212, 0.12)"></path>
        <path d="M1125.22 33.82L1166.53 33.82L1166.53 53.1L1125.22 53.1z" fill="rgba(72, 49, 212, 0.12)"></path>
        <path d="M853.09 239L874.18 239L874.18 252.94L853.09 252.94z" stroke="rgba(204, 243, 129, 0.2)"></path>
        <path d="M626.29 278.14L657.79 278.14L657.79 304.37L626.29 304.37z" fill="rgba(204, 243, 129, 0.2)"></path>
        <path d="M1426.32 96.03L1439.91 96.03L1439.91 109.62L1426.32 109.62z" fill="rgba(72, 49, 212, 0.12)"></path>
    </g>
    <defs>
        <mask id="SvgjsMask1012">
            <rect width="1440" height="560" fill="#ffffff"></rect>
        </mask>
    </defs>
</svg>