<svg xmlns="http://www.w3.org/2000/svg" version="1.1" xmlns:xlink="http://www.w3.org/1999/xlink" xmlns:svgjs="http://svgjs.com/svgjs" width="1440" height="560" preserveAspectRatio="none" viewBox="0 0 1440 560">
    <g mask="url(&quot;#SvgjsMask1299&quot;)" fill="none">
        <rect width="1440" height="560" x="0" y="0" fill="rgba(72, 49, 212, 1)"></rect>
        <rect width="241.6" height="241.6" clip-path="url(&quot;#SvgjsClipPath1300&quot;)" x="85.61" y="78.1" fill="url(#SvgjsPattern1301)" transform="rotate(234.13, 206.41, 198.9)"></rect>
        <path d="M980.64 541.35 L978.54 701.52L1091.2538270854159 733.098827085416z" fill="rgba(204, 243, 129, 1)"></path>
        <path d="M1245.25 48.69a5.6 5.6 0 1 0-7.51-8.31 5.6 5.6 0 1 0 7.51 8.31zM1234.52 36.81a5.6 5.6 0 1 0-7.5-8.31 5.6 5.6 0 1 0 7.5 8.31zM1223.8 24.94a5.6 5.6 0 1 0-7.5-8.31 5.6 5.6 0 1 0 7.5 8.31zM1213.08 13.06a5.6 5.6 0 1 0-7.51-8.31 5.6 5.6 0 1 0 7.51 8.31zM1278.57 61.72a5.6 5.6 0 1 0-7.51-8.31 5.6 5.6 0 1 0 7.51 8.31zM1267.84 49.84a5.6 5.6 0 1 0-7.5-8.31 5.6 5.6 0 1 0 7.5 8.31zM1257.12 37.97a5.6 5.6 0 1 0-7.5-8.32 5.6 5.6 0 1 0 7.5 8.32zM1246.4 26.09a5.6 5.6 0 1 0-7.51-8.31 5.6 5.6 0 1 0 7.51 8.31zM1311.89 74.75a5.6 5.6 0 1 0-7.51-8.32 5.6 5.6 0 1 0 7.51 8.32zM1301.17 62.87a5.6 5.6 0 1 0-7.51-8.31 5.6 5.6 0 1 0 7.51 8.31zM1290.44 51a5.6 5.6 0 1 0-7.5-8.32 5.6 5.6 0 1 0 7.5 8.32zM1279.72 39.12a5.6 5.6 0 1 0-7.51-8.31 5.6 5.6 0 1 0 7.51 8.31z" stroke="rgba(204, 243, 129, 1)" stroke-width="1.69"></path>
        <rect width="234.83999999999997" height="234.83999999999997" clip-path="url(&quot;#SvgjsClipPath1302&quot;)" x="540.87" y="-111.39" fill="url(#SvgjsPattern1303)" transform="rotate(246.6, 658.29, 6.03)"></rect>
        <path d="M1056.75 24a5.6 5.6 0 1 0 10.79 3.01 5.6 5.6 0 1 0-10.79-3.01zM1072.16 28.31a5.6 5.6 0 1 0 10.79 3.01 5.6 5.6 0 1 0-10.79-3.01zM1087.57 32.61a5.6 5.6 0 1 0 10.79 3.02 5.6 5.6 0 1 0-10.79-3.02zM1102.98 36.92a5.6 5.6 0 1 0 10.79 3.01 5.6 5.6 0 1 0-10.79-3.01z" stroke="rgba(204, 243, 129, 1)" stroke-width="1.45" stroke-dasharray="2, 2"></path>
        <path d="M1222.24 227.6a5.6 5.6 0 1 0-8.64 7.13 5.6 5.6 0 1 0 8.64-7.13zM1209.89 237.78a5.6 5.6 0 1 0-8.64 7.12 5.6 5.6 0 1 0 8.64-7.12zM1197.54 247.95a5.6 5.6 0 1 0-8.64 7.12 5.6 5.6 0 1 0 8.64-7.12zM1185.19 258.12a5.6 5.6 0 1 0-8.64 7.12 5.6 5.6 0 1 0 8.64-7.12z" stroke="rgba(204, 243, 129, 1)" stroke-width="2.97" stroke-dasharray="2, 2"></path>
        <rect width="276" height="276" clip-path="url(&quot;#SvgjsClipPath1304&quot;)" x="129.89" y="421.83" fill="url(#SvgjsPattern1305)" transform="rotate(132.69, 267.89, 559.83)"></rect>
        <path d="M312.01 362.15L322.54 354.86 331.96 363.53 342.49 356.23 351.91 364.9 362.44 357.61 371.87 366.28" stroke="rgba(204, 243, 129, 1)" stroke-width="1.26" stroke-dasharray="4, 4"></path>
        <path d="M762.94 504.31L771.42 494.71 782.65 500.88 791.13 491.28 802.35 497.45 810.83 487.85 822.05 494.02M764.31 512.19L772.79 502.59 784.02 508.76 792.5 499.16 803.72 505.33 812.2 495.74 823.43 501.9" stroke="rgba(204, 243, 129, 1)" stroke-width="1" stroke-dasharray="2, 2"></path>
        <rect width="240" height="240" clip-path="url(&quot;#SvgjsClipPath1306&quot;)" x="-38.16" y="260.2" fill="url(#SvgjsPattern1307)" transform="rotate(196.99, 81.84, 380.2)"></rect>
        <rect width="168.12" height="168.12" clip-path="url(&quot;#SvgjsClipPath1308&quot;)" x="357.53" y="-2.94" fill="url(#SvgjsPattern1309)" transform="rotate(282.91, 441.59, 81.12)"></rect>
        <rect width="264" height="264" clip-path="url(&quot;#SvgjsClipPath1310&quot;)" x="296.5" y="424.44" fill="url(#SvgjsPattern1311)" transform="rotate(134.47, 428.5, 556.44)"></rect>
    </g>
    <defs>
        <mask id="SvgjsMask1299">
            <rect width="1440" height="560" fill="#ffffff"></rect>
        </mask>
        <pattern x="0" y="0" width="6.04" height="6.04" patternUnits="userSpaceOnUse" id="SvgjsPattern1301">
            <path d="M3.02 1L3.02 5.04M1 3.02L5.04 3.02" stroke="rgba(204, 243, 129, 1)" fill="none" stroke-width="1.13"></path>
        </pattern>
        <clipPath id="SvgjsClipPath1300">
            <circle r="60.4" cx="206.41" cy="198.9"></circle>
        </clipPath>
        <pattern x="0" y="0" width="6.18" height="6.18" patternUnits="userSpaceOnUse" id="SvgjsPattern1303">
            <path d="M0 6.18L3.09 0L6.18 6.18" stroke="rgba(204, 243, 129, 1)" fill="none"></path>
        </pattern>
        <clipPath id="SvgjsClipPath1302">
            <circle r="58.709999999999994" cx="658.29" cy="6.03"></circle>
        </clipPath>
        <pattern x="0" y="0" width="6" height="6" patternUnits="userSpaceOnUse" id="SvgjsPattern1305">
            <path d="M3 1L3 5M1 3L5 3" stroke="rgba(204, 243, 129, 1)" fill="none" stroke-width="1"></path>
        </pattern>
        <clipPath id="SvgjsClipPath1304">
            <circle r="69" cx="267.89" cy="559.83"></circle>
        </clipPath>
        <pattern x="0" y="0" width="6" height="6" patternUnits="userSpaceOnUse" id="SvgjsPattern1307">
            <path d="M3 1L3 5M1 3L5 3" stroke="rgba(204, 243, 129, 1)" fill="none" stroke-width="1"></path>
        </pattern>
        <clipPath id="SvgjsClipPath1306">
            <circle r="60" cx="81.84" cy="380.2"></circle>
        </clipPath>
        <pattern x="0" y="0" width="9.34" height="9.34" patternUnits="userSpaceOnUse" id="SvgjsPattern1309">
            <path d="M4.67 1L4.67 8.34M1 4.67L8.34 4.67" stroke="rgba(204, 243, 129, 1)" fill="none" stroke-width="1.82"></path>
        </pattern>
        <clipPath id="SvgjsClipPath1308">
            <circle r="42.03" cx="441.59" cy="81.12"></circle>
        </clipPath>
        <pattern x="0" y="0" width="6" height="6" patternUnits="userSpaceOnUse" id="SvgjsPattern1311">
            <path d="M0 6L3 0L6 6" stroke="rgba(204, 243, 129, 1)" fill="none"></path>
        </pattern>
        <clipPath id="SvgjsClipPath1310">
            <circle r="66" cx="428.5" cy="556.44"></circle>
        </clipPath>
    </defs>
</svg>